<svg width="345" height="173" viewBox="0 0 345 173" fill="none" xmlns="http://www.w3.org/2000/svg">
<path d="M15.8523 150H2.35227L26.9318 80.1818H42.5455L67.1591 150H53.6591L35.0114 94.5H34.4659L15.8523 150ZM16.2955 122.625H53.1136V132.784H16.2955V122.625ZM96.9886 170.727C92.5568 170.727 88.75 170.125 85.5682 168.92C82.3864 167.739 79.8295 166.148 77.8977 164.148C75.9659 162.148 74.625 159.932 73.875 157.5L84.9886 154.807C85.4886 155.83 86.2159 156.841 87.1705 157.841C88.125 158.864 89.4091 159.705 91.0227 160.364C92.6591 161.045 94.7159 161.386 97.1932 161.386C100.693 161.386 103.591 160.534 105.886 158.83C108.182 157.148 109.33 154.375 109.33 150.511V140.591H108.716C108.08 141.864 107.148 143.17 105.92 144.511C104.716 145.852 103.114 146.977 101.114 147.886C99.1364 148.795 96.6477 149.25 93.6477 149.25C89.625 149.25 85.9773 148.307 82.7045 146.42C79.4545 144.511 76.8636 141.67 74.9318 137.898C73.0227 134.102 72.0682 129.352 72.0682 123.648C72.0682 117.898 73.0227 113.045 74.9318 109.091C76.8636 105.114 79.4659 102.102 82.7386 100.057C86.0114 97.9886 89.6591 96.9545 93.6818 96.9545C96.75 96.9545 99.2727 97.4773 101.25 98.5227C103.25 99.5455 104.841 100.784 106.023 102.239C107.205 103.67 108.102 105.023 108.716 106.295H109.398V97.6364H121.568V150.852C121.568 155.33 120.5 159.034 118.364 161.966C116.227 164.898 113.307 167.091 109.602 168.545C105.898 170 101.693 170.727 96.9886 170.727ZM97.0909 139.568C99.7045 139.568 101.932 138.932 103.773 137.659C105.614 136.386 107.011 134.557 107.966 132.17C108.92 129.784 109.398 126.92 109.398 123.58C109.398 120.284 108.92 117.398 107.966 114.92C107.034 112.443 105.648 110.523 103.807 109.159C101.989 107.773 99.75 107.08 97.0909 107.08C94.3409 107.08 92.0455 107.795 90.2045 109.227C88.3636 110.659 86.9773 112.625 86.0455 115.125C85.1136 117.602 84.6477 120.42 84.6477 123.58C84.6477 126.784 85.1136 129.591 86.0455 132C87 134.386 88.3977 136.25 90.2386 137.591C92.1023 138.909 94.3864 139.568 97.0909 139.568ZM134.216 150V97.6364H146.182V106.364H146.727C147.682 103.341 149.318 101.011 151.636 99.375C153.977 97.7159 156.648 96.8864 159.648 96.8864C160.33 96.8864 161.091 96.9205 161.932 96.9886C162.795 97.0341 163.511 97.1136 164.08 97.2273V108.58C163.557 108.398 162.727 108.239 161.591 108.102C160.477 107.943 159.398 107.864 158.352 107.864C156.102 107.864 154.08 108.352 152.284 109.33C150.511 110.284 149.114 111.614 148.091 113.318C147.068 115.023 146.557 116.989 146.557 119.216V150H134.216ZM172.278 150V97.6364H184.619V150H172.278ZM178.483 90.2045C176.528 90.2045 174.847 89.5568 173.438 88.2614C172.028 86.9432 171.324 85.3636 171.324 83.5227C171.324 81.6591 172.028 80.0795 173.438 78.7841C174.847 77.4659 176.528 76.8068 178.483 76.8068C180.46 76.8068 182.142 77.4659 183.528 78.7841C184.938 80.0795 185.642 81.6591 185.642 83.5227C185.642 85.3636 184.938 86.9432 183.528 88.2614C182.142 89.5568 180.46 90.2045 178.483 90.2045Z" fill="#253625"/>
<path d="M206.378 80.1818V150H198.332V80.1818H206.378ZM221.114 150V97.6364H229.159V150H221.114ZM225.205 88.9091C223.636 88.9091 222.284 88.375 221.148 87.3068C220.034 86.2386 219.477 84.9545 219.477 83.4545C219.477 81.9545 220.034 80.6705 221.148 79.6023C222.284 78.5341 223.636 78 225.205 78C226.773 78 228.114 78.5341 229.227 79.6023C230.364 80.6705 230.932 81.9545 230.932 83.4545C230.932 84.9545 230.364 86.2386 229.227 87.3068C228.114 88.375 226.773 88.9091 225.205 88.9091ZM251.94 118.5V150H243.895V97.6364H251.668V105.818H252.349C253.577 103.159 255.44 101.023 257.94 99.4091C260.44 97.7727 263.668 96.9545 267.622 96.9545C271.168 96.9545 274.27 97.6818 276.929 99.1364C279.588 100.568 281.656 102.75 283.134 105.682C284.611 108.591 285.349 112.273 285.349 116.727V150H277.304V117.273C277.304 113.159 276.236 109.955 274.099 107.659C271.963 105.341 269.031 104.182 265.304 104.182C262.736 104.182 260.44 104.739 258.418 105.852C256.418 106.966 254.838 108.591 253.679 110.727C252.52 112.864 251.94 115.455 251.94 118.5ZM307.551 130.909L307.415 120.955H309.051L331.96 97.6364H341.915L317.506 122.318H316.824L307.551 130.909ZM300.051 150V80.1818H308.097V150H300.051ZM333.324 150L312.869 124.091L318.597 118.5L343.551 150H333.324Z" fill="#33751C"/>
<path d="M153.761 64.6405C208.876 64.6405 204.55 87.7264 204.55 87.7264C204.55 87.7264 224.256 51.1063 178.847 21.6058C133.439 -7.89476 85.4749 20.7173 85.4749 20.7173C85.4749 20.7173 98.6456 64.6405 153.761 64.6405Z" fill="#33751C"/>
<path d="M207.281 51.2806C207.281 51.2806 218.384 8.69062 238.69 2.30212C258.995 -4.08638 290.39 4.84847 290.39 4.84847C290.39 4.84847 274.569 32.8024 254.256 47.7089C233.943 62.6154 207.281 51.2806 207.281 51.2806Z" fill="#4E9643"/>
</svg>
